<svg width="159" height="53" viewBox="0 0 159 53" fill="none" xmlns="http://www.w3.org/2000/svg">
<g clip-path="url(#clip0_292_202)">
<path d="M145.929 0.00017225H12.6335C12.1476 0.00017225 11.6675 0.00017225 11.1829 0.00282225C10.7773 0.00547225 10.3749 0.0131705 9.96532 0.0196497C9.07561 0.0301196 8.18798 0.108393 7.31016 0.253791C6.43357 0.402353 5.58444 0.682436 4.79149 1.08457C3.99951 1.4901 3.27586 2.01704 2.64678 2.64629C2.0144 3.27377 1.48726 3.99904 1.08564 4.79423C0.682905 5.58784 0.403649 6.43827 0.257514 7.31613C0.109989 8.19289 0.0306054 9.07976 0.0200737 9.96878C0.00777775 10.375 0.00647925 10.7826 0 11.1889V41.8153C0.00647925 42.2267 0.00777775 42.6253 0.0200737 43.0368C0.0306086 43.9258 0.109993 44.8126 0.257514 45.6894C0.403245 46.5677 0.682518 47.4186 1.08564 48.2126C1.48708 49.0052 2.01429 49.7275 2.64678 50.3515C3.27347 50.9835 3.99759 51.5108 4.79149 51.9133C5.58443 52.3165 6.43347 52.5982 7.31016 52.7491C8.18813 52.8933 9.07566 52.9716 9.96532 52.9833C10.3749 52.9924 10.7773 52.9975 11.1829 52.9975C11.6675 53.0002 12.1476 53.0002 12.6335 53.0002H145.929C146.405 53.0002 146.889 53.0002 147.365 52.9975C147.769 52.9975 148.183 52.9924 148.586 52.9833C149.474 52.9722 150.36 52.8939 151.236 52.7491C152.116 52.5972 152.968 52.3155 153.765 51.9133C154.558 51.5106 155.281 50.9833 155.908 50.3515C156.538 49.7251 157.067 49.0033 157.473 48.2126C157.873 47.4181 158.15 46.5672 158.293 45.6894C158.441 44.8125 158.523 43.9259 158.539 43.0368C158.545 42.6253 158.545 42.2267 158.545 41.8153C158.555 41.3339 158.555 40.8552 158.555 40.366V12.6355C158.555 12.1503 158.555 11.669 158.545 11.1889C158.545 10.7826 158.545 10.375 158.539 9.96873C158.523 9.07963 158.441 8.19296 158.293 7.31608C158.149 6.43872 157.873 5.58836 157.473 4.79418C156.655 3.20031 155.358 1.90291 153.765 1.08445C152.968 0.683299 152.116 0.403291 151.236 0.253671C150.36 0.107633 149.474 0.0293325 148.586 0.0194643C148.183 0.0129983 147.769 0.00523375 147.365 0.00265C146.889 0 146.405 0.00017225 145.929 0.00017225Z" fill="#3A3A3A"/>
<path d="M11.1889 51.8404C10.7852 51.8404 10.3913 51.8353 9.99073 51.8263C9.16099 51.8154 8.33319 51.7432 7.51412 51.6101C6.75037 51.4786 6.01051 51.2339 5.31894 50.8842C4.6337 50.5373 4.00871 50.0825 3.46791 49.5372C2.91928 48.9983 2.46252 48.3732 2.11574 47.6868C1.76513 46.996 1.52248 46.2554 1.39626 45.491C1.25995 44.6697 1.1862 43.8392 1.17565 43.0067C1.16725 42.7272 1.15625 41.7968 1.15625 41.7968V11.1886C1.15625 11.1886 1.16796 10.2724 1.17571 10.0033C1.18582 9.17209 1.25914 8.34287 1.39504 7.5228C1.5215 6.75631 1.76433 6.01365 2.11513 5.32051C2.46064 4.63458 2.91486 4.00907 3.46019 3.46823C4.0049 2.92225 4.63189 2.46511 5.31829 2.11346C6.00827 1.76483 6.74674 1.52188 7.50894 1.39274C8.3307 1.25834 9.16137 1.18567 9.99399 1.17536L11.1896 1.15918H147.358L148.568 1.17601C149.393 1.18581 150.216 1.25783 151.03 1.39144C151.8 1.5222 152.546 1.76685 153.244 2.11734C154.619 2.82601 155.738 3.9472 156.444 5.32375C156.789 6.0121 157.028 6.7487 157.153 7.50857C157.291 8.33537 157.368 9.17111 157.383 10.0091C157.387 10.3844 157.387 10.7874 157.387 11.1886C157.398 11.6854 157.398 12.1584 157.398 12.6352V40.3657C157.398 40.847 157.398 41.3168 157.387 41.7903C157.387 42.2212 157.387 42.6159 157.382 43.0222C157.367 43.8452 157.291 44.666 157.156 45.478C157.032 46.248 156.791 46.9943 156.44 47.6908C156.091 48.3698 155.637 48.9894 155.094 49.5268C154.553 50.0751 153.927 50.5326 153.24 50.8817C152.544 51.2341 151.799 51.4797 151.03 51.6101C150.211 51.7439 149.383 51.8162 148.553 51.8263C148.165 51.8353 147.759 51.8404 147.364 51.8404L145.928 51.8431L11.1889 51.8404Z" fill="black"/>
<path d="M32.8193 26.8983C32.8336 25.7924 33.1273 24.708 33.6733 23.7462C34.2192 22.7843 34.9996 21.9761 35.9418 21.3968C35.3432 20.542 34.5536 19.8385 33.6356 19.3422C32.7176 18.8459 31.6965 18.5706 30.6535 18.5379C28.4285 18.3044 26.2715 19.8693 25.1376 19.8693C23.9819 19.8693 22.2362 18.5611 20.3564 18.5998C19.1405 18.6391 17.9555 18.9927 16.9168 19.6261C15.8782 20.2595 15.0213 21.1512 14.4298 22.2142C11.8672 26.6509 13.7786 33.1713 16.2333 36.7575C17.4615 38.5136 18.8968 40.4752 20.775 40.4056C22.6128 40.3294 23.2992 39.2337 25.5177 39.2337C27.7155 39.2337 28.3595 40.4056 30.2757 40.3614C32.2478 40.3294 33.4904 38.5975 34.6754 36.8248C35.5578 35.5735 36.2369 34.1906 36.6873 32.7272C35.5416 32.2426 34.5638 31.4315 33.876 30.395C33.1882 29.3584 32.8207 28.1423 32.8193 26.8983Z" fill="white"/>
<path d="M29.2001 16.1793C30.2754 14.8884 30.8051 13.2293 30.6769 11.5542C29.0341 11.7267 27.5166 12.5119 26.4268 13.7532C25.894 14.3596 25.4859 15.0651 25.2259 15.8293C24.9658 16.5935 24.859 17.4015 24.9114 18.207C25.7331 18.2155 26.546 18.0374 27.2889 17.6861C28.0317 17.3349 28.6852 16.8197 29.2001 16.1793Z" fill="white"/>
<path d="M56.0516 35.9602H49.7798L48.2737 40.4075H45.6172L51.5577 23.9536H54.3177L60.2582 40.4075H57.5564L56.0516 35.9602ZM50.4294 33.908H55.4008L52.95 26.6903H52.8814L50.4294 33.908Z" fill="white"/>
<path d="M73.0872 34.4102C73.0872 38.138 71.0919 40.5331 68.0809 40.5331C67.3182 40.573 66.5596 40.3973 65.8921 40.0261C65.2245 39.6549 64.675 39.1033 64.3065 38.4343H64.2495V44.3761H61.7871V28.4114H64.1706V30.4067H64.2159C64.6014 29.7409 65.1602 29.1921 65.8328 28.8187C66.5054 28.4452 67.2667 28.2611 68.0356 28.2859C71.0802 28.2859 73.0872 30.6926 73.0872 34.4102ZM70.5562 34.4102C70.5562 31.9814 69.3011 30.3847 67.386 30.3847C65.5046 30.3847 64.2392 32.0151 64.2392 34.4102C64.2392 36.8272 65.5046 38.446 67.386 38.446C69.3011 38.446 70.5562 36.8609 70.5562 34.4102Z" fill="white"/>
<path d="M86.2903 34.4101C86.2903 38.138 84.295 40.5331 81.284 40.5331C80.5213 40.573 79.7627 40.3973 79.0952 40.0261C78.4277 39.6549 77.8782 39.1033 77.5096 38.4343H77.4526V44.3761H74.9902V28.4114H77.3737V30.4067H77.419C77.8045 29.7409 78.3633 29.1921 79.0359 28.8187C79.7085 28.4452 80.4698 28.2611 81.2387 28.2859C84.2834 28.2859 86.2903 30.6926 86.2903 34.4101ZM83.7593 34.4101C83.7593 31.9814 82.5042 30.3847 80.5892 30.3847C78.7078 30.3847 77.4423 32.015 77.4423 34.4101C77.4423 36.8272 78.7078 38.446 80.5892 38.446C82.5042 38.446 83.7593 36.8609 83.7593 34.4101Z" fill="white"/>
<path d="M95.0167 35.8229C95.1992 37.4546 96.7843 38.5259 98.9503 38.5259C101.026 38.5259 102.519 37.4546 102.519 35.9833C102.519 34.7062 101.618 33.9415 99.486 33.4174L97.3536 32.9037C94.3323 32.174 92.9296 30.761 92.9296 28.4681C92.9296 25.6292 95.4036 23.6792 98.9167 23.6792C102.393 23.6792 104.777 25.6292 104.857 28.4681H102.371C102.223 26.8261 100.865 25.8349 98.8817 25.8349C96.8981 25.8349 95.5408 26.8377 95.5408 28.2973C95.5408 29.4606 96.4077 30.1451 98.5285 30.6691L100.341 31.1142C103.717 31.9125 105.12 33.2686 105.12 35.6753C105.12 38.7536 102.668 40.6816 98.7678 40.6816C95.1189 40.6816 92.6553 38.7989 92.4961 35.8228L95.0167 35.8229Z" fill="white"/>
<path d="M110.435 25.5723V28.4112H112.716V30.3612H110.435V36.9745C110.435 38.0019 110.892 38.4807 111.895 38.4807C112.165 38.4759 112.436 38.4569 112.705 38.4237V40.362C112.254 40.4463 111.796 40.4844 111.337 40.4759C108.908 40.4759 107.961 39.5637 107.961 37.2371V30.3612H106.217V28.4112H107.961V25.5723H110.435Z" fill="white"/>
<path d="M114.037 34.4099C114.037 30.6355 116.26 28.2637 119.727 28.2637C123.205 28.2637 125.417 30.6354 125.417 34.4099C125.417 38.1947 123.216 40.5561 119.727 40.5561C116.238 40.5561 114.037 38.1947 114.037 34.4099ZM122.908 34.4099C122.908 31.8207 121.722 30.2926 119.727 30.2926C117.731 30.2926 116.546 31.8324 116.546 34.4099C116.546 37.0094 117.731 38.526 119.727 38.526C121.722 38.526 122.908 37.0094 122.908 34.4099Z" fill="white"/>
<path d="M127.447 28.4113H129.796V30.4531H129.853C130.012 29.8154 130.385 29.2519 130.911 28.8572C131.436 28.4625 132.082 28.2607 132.738 28.2858C133.022 28.2848 133.305 28.3156 133.582 28.3777V30.6809C133.224 30.5714 132.85 30.5211 132.476 30.5321C132.118 30.5176 131.761 30.5806 131.43 30.717C131.099 30.8533 130.801 31.0596 130.558 31.3218C130.314 31.584 130.13 31.8959 130.018 32.236C129.906 32.5761 129.869 32.9363 129.91 33.2921V40.4075H127.447L127.447 28.4113Z" fill="white"/>
<path d="M144.935 36.8839C144.603 39.0616 142.483 40.5561 139.769 40.5561C136.279 40.5561 134.113 38.218 134.113 34.4668C134.113 30.7041 136.291 28.2637 139.666 28.2637C142.985 28.2637 145.072 30.5436 145.072 34.1809V35.0245H136.599V35.1733C136.56 35.6148 136.615 36.0596 136.761 36.4781C136.907 36.8966 137.14 37.2792 137.446 37.6006C137.751 37.922 138.121 38.1747 138.531 38.3421C138.942 38.5094 139.383 38.5875 139.826 38.5712C140.408 38.6258 140.992 38.491 141.491 38.187C141.99 37.883 142.378 37.426 142.596 36.8839L144.935 36.8839ZM136.611 33.3036H142.608C142.63 32.9066 142.57 32.5094 142.431 32.1368C142.293 31.7642 142.078 31.4243 141.802 31.1384C141.526 30.8525 141.193 30.6268 140.826 30.4754C140.458 30.3241 140.063 30.2504 139.666 30.2589C139.265 30.2565 138.867 30.3336 138.496 30.4856C138.125 30.6377 137.788 30.8617 137.504 31.1447C137.22 31.4278 136.995 31.7643 136.841 32.1348C136.688 32.5054 136.61 32.9026 136.611 33.3036Z" fill="white"/>
<path d="M50.1194 11.5685C50.6356 11.5315 51.1537 11.6095 51.6361 11.7969C52.1186 11.9843 52.5534 12.2764 52.9093 12.6522C53.2652 13.028 53.5332 13.4781 53.6941 13.9701C53.8549 14.462 53.9046 14.9835 53.8395 15.497C53.8395 18.0227 52.4744 19.4746 50.1194 19.4746H47.2637V11.5685H50.1194ZM48.4916 18.3565H49.9822C50.3511 18.3786 50.7203 18.3181 51.0629 18.1795C51.4054 18.0409 51.7128 17.8276 51.9625 17.5552C52.2123 17.2829 52.3981 16.9582 52.5066 16.6049C52.6151 16.2517 52.6434 15.8787 52.5895 15.5131C52.6395 15.1489 52.6083 14.7782 52.4982 14.4275C52.388 14.0769 52.2017 13.7549 51.9525 13.4847C51.7033 13.2145 51.3975 13.0027 51.0568 12.8646C50.7162 12.7265 50.3492 12.6654 49.9822 12.6858H48.4916V18.3565Z" fill="white"/>
<path d="M55.2262 16.4888C55.1887 16.0967 55.2335 15.7011 55.3579 15.3273C55.4822 14.9536 55.6833 14.61 55.9482 14.3185C56.2131 14.027 56.5361 13.7941 56.8963 13.6348C57.2565 13.4754 57.646 13.3931 58.0399 13.3931C58.4338 13.3931 58.8233 13.4754 59.1835 13.6348C59.5437 13.7941 59.8666 14.027 60.1315 14.3185C60.3965 14.61 60.5976 14.9536 60.7219 15.3273C60.8462 15.7011 60.8911 16.0967 60.8536 16.4888C60.8918 16.8813 60.8475 17.2774 60.7235 17.6518C60.5995 18.0261 60.3985 18.3704 60.1335 18.6624C59.8685 18.9545 59.5454 19.1878 59.1848 19.3475C58.8242 19.5073 58.4342 19.5898 58.0399 19.5898C57.6455 19.5898 57.2555 19.5073 56.895 19.3475C56.5344 19.1878 56.2113 18.9545 55.9463 18.6624C55.6813 18.3704 55.4803 18.0261 55.3563 17.6518C55.2323 17.2774 55.188 16.8813 55.2262 16.4888ZM59.6424 16.4888C59.6424 15.1955 59.0614 14.4392 58.0418 14.4392C57.0183 14.4392 56.4425 15.1955 56.4425 16.4888C56.4425 17.7924 57.0184 18.5429 58.0418 18.5429C59.0615 18.5429 59.6424 17.7872 59.6424 16.4888Z" fill="white"/>
<path d="M68.3333 19.4747H67.1118L65.8787 15.0804H65.7855L64.5576 19.4747H63.3477L61.7031 13.5083H62.8974L63.9662 18.061H64.0542L65.2809 13.5083H66.4105L67.6372 18.061H67.7303L68.7939 13.5083H69.9714L68.3333 19.4747Z" fill="white"/>
<path d="M71.3555 13.5083H72.489V14.4561H72.577C72.7262 14.1156 72.978 13.8303 73.2971 13.6397C73.6163 13.4492 73.9869 13.363 74.3574 13.3931C74.6477 13.3713 74.9392 13.415 75.2103 13.5212C75.4814 13.6273 75.7252 13.793 75.9235 14.0062C76.1218 14.2193 76.2697 14.4743 76.356 14.7523C76.4424 15.0303 76.4652 15.3242 76.4226 15.6122V19.4746H75.2451V15.9079C75.2451 14.9491 74.8284 14.4722 73.9576 14.4722C73.7605 14.4631 73.5637 14.4966 73.3808 14.5706C73.1979 14.6446 73.0331 14.7572 72.8978 14.9008C72.7625 15.0444 72.6598 15.2156 72.5968 15.4026C72.5339 15.5896 72.5121 15.788 72.533 15.9842V19.4746H71.3555L71.3555 13.5083Z" fill="white"/>
<path d="M78.2988 11.1792H79.4763V19.4747H78.2988V11.1792Z" fill="white"/>
<path d="M81.1129 16.4889C81.0754 16.0968 81.1203 15.7011 81.2447 15.3274C81.369 14.9536 81.5701 14.61 81.8351 14.3185C82.1 14.027 82.423 13.7941 82.7832 13.6348C83.1434 13.4754 83.533 13.3931 83.9269 13.3931C84.3208 13.3931 84.7104 13.4754 85.0706 13.6348C85.4308 13.7941 85.7538 14.027 86.0187 14.3185C86.2837 14.61 86.4848 14.9536 86.6091 15.3274C86.7335 15.7011 86.7784 16.0968 86.7409 16.4889C86.7791 16.8814 86.7347 17.2775 86.6107 17.6519C86.4866 18.0262 86.2856 18.3705 86.0206 18.6625C85.7556 18.9546 85.4324 19.1879 85.0718 19.3476C84.7113 19.5073 84.3213 19.5898 83.9269 19.5898C83.5325 19.5898 83.1425 19.5073 82.782 19.3476C82.4214 19.1879 82.0982 18.9546 81.8332 18.6625C81.5682 18.3705 81.3672 18.0262 81.2431 17.6519C81.1191 17.2775 81.0747 16.8814 81.1129 16.4889ZM85.5291 16.4889C85.5291 15.1956 84.9481 14.4393 83.9285 14.4393C82.905 14.4393 82.3292 15.1956 82.3292 16.4889C82.3292 17.7925 82.905 18.543 83.9285 18.543C84.9481 18.543 85.5291 17.7874 85.5291 16.4889Z" fill="white"/>
<path d="M87.9805 17.7873C87.9805 16.7133 88.7801 16.0942 90.1996 16.0062L91.8157 15.913V15.398C91.8157 14.7679 91.3991 14.412 90.5942 14.412C89.9369 14.412 89.4815 14.6534 89.3508 15.0752H88.2108C88.3311 14.0504 89.2951 13.3931 90.6486 13.3931C92.1444 13.3931 92.988 14.1377 92.988 15.398V19.4746H91.8545V18.6361H91.7614C91.5723 18.9369 91.3067 19.1821 90.9919 19.3467C90.677 19.5112 90.3242 19.5893 89.9693 19.5729C89.7188 19.599 89.4656 19.5722 89.2261 19.4945C88.9866 19.4167 88.7661 19.2896 88.5787 19.1213C88.3913 18.9531 88.2413 18.7475 88.1382 18.5177C88.0352 18.2879 87.9815 18.0391 87.9805 17.7873ZM91.8157 17.2775V16.7787L90.3587 16.8718C89.5371 16.9268 89.1644 17.2063 89.1644 17.7323C89.1644 18.2693 89.6302 18.5818 90.2708 18.5818C90.4585 18.6008 90.6481 18.5818 90.8283 18.526C91.0085 18.4703 91.1756 18.3788 91.3198 18.2571C91.4639 18.1354 91.5821 17.986 91.6673 17.8177C91.7525 17.6494 91.803 17.4657 91.8157 17.2775Z" fill="white"/>
<path d="M94.5352 16.4889C94.5352 14.6036 95.5043 13.4093 97.0118 13.4093C97.3846 13.3922 97.7547 13.4815 98.0787 13.6668C98.4027 13.8522 98.6672 14.1259 98.8414 14.4561H98.9294V11.1792H100.107V19.4747H98.9786V18.532H98.8854C98.6978 18.86 98.424 19.1303 98.0938 19.3138C97.7635 19.4973 97.3893 19.5869 97.0118 19.573C95.494 19.5731 94.5352 18.3787 94.5352 16.4889ZM95.7515 16.4889C95.7515 17.7544 96.348 18.5159 97.3457 18.5159C98.3381 18.5159 98.9514 17.7434 98.9514 16.4941C98.9514 15.2506 98.3316 14.4671 97.3457 14.4671C96.3544 14.4671 95.7515 15.2338 95.7515 16.4889Z" fill="white"/>
<path d="M104.98 16.4888C104.943 16.0967 104.987 15.7011 105.112 15.3273C105.236 14.9536 105.437 14.61 105.702 14.3185C105.967 14.027 106.29 13.7941 106.65 13.6348C107.01 13.4754 107.4 13.3931 107.794 13.3931C108.188 13.3931 108.577 13.4754 108.937 13.6348C109.298 13.7941 109.621 14.027 109.885 14.3185C110.15 14.61 110.351 14.9536 110.476 15.3273C110.6 15.7011 110.645 16.0967 110.607 16.4888C110.646 16.8813 110.601 17.2774 110.477 17.6518C110.353 18.0261 110.152 18.3704 109.887 18.6624C109.622 18.9545 109.299 19.1878 108.939 19.3475C108.578 19.5073 108.188 19.5898 107.794 19.5898C107.399 19.5898 107.009 19.5073 106.649 19.3475C106.288 19.1878 105.965 18.9545 105.7 18.6624C105.435 18.3704 105.234 18.0261 105.11 17.6518C104.986 17.2774 104.942 16.8813 104.98 16.4888ZM109.396 16.4888C109.396 15.1955 108.815 14.4392 107.796 14.4392C106.772 14.4392 106.196 15.1955 106.196 16.4888C106.196 17.7924 106.772 18.5429 107.796 18.5429C108.815 18.5429 109.396 17.7872 109.396 16.4888Z" fill="white"/>
<path d="M112.188 13.5083H113.321V14.4561H113.409C113.558 14.1156 113.81 13.8303 114.129 13.6397C114.448 13.4492 114.819 13.363 115.189 13.3931C115.48 13.3713 115.771 13.415 116.042 13.5212C116.313 13.6273 116.557 13.793 116.756 14.0062C116.954 14.2193 117.102 14.4743 117.188 14.7523C117.274 15.0303 117.297 15.3242 117.255 15.6122V19.4746H116.077V15.9079C116.077 14.9491 115.66 14.4722 114.79 14.4722C114.593 14.4631 114.396 14.4966 114.213 14.5706C114.03 14.6446 113.865 14.7572 113.73 14.9008C113.595 15.0444 113.492 15.2156 113.429 15.4026C113.366 15.5896 113.344 15.788 113.365 15.9842V19.4746H112.188V13.5083Z" fill="white"/>
<path d="M123.907 12.0229V13.5356H125.2V14.5274H123.907V17.5953C123.907 18.2203 124.165 18.494 124.751 18.494C124.901 18.4935 125.051 18.4844 125.2 18.4668V19.4476C124.988 19.4854 124.774 19.5056 124.559 19.5078C123.25 19.5078 122.728 19.0471 122.728 17.8968V14.5273H121.781V13.5355H122.728V12.0229H123.907Z" fill="white"/>
<path d="M126.809 11.1792H127.976V14.4671H128.069C128.225 14.1235 128.484 13.8365 128.81 13.6453C129.135 13.454 129.512 13.3678 129.888 13.3983C130.177 13.3826 130.466 13.4308 130.734 13.5395C131.002 13.6482 131.242 13.8147 131.439 14.0272C131.635 14.2396 131.782 14.4928 131.869 14.7686C131.956 15.0443 131.981 15.336 131.943 15.6226V19.4747H130.764V15.9131C130.764 14.9601 130.32 14.4775 129.488 14.4775C129.286 14.4609 129.082 14.4887 128.892 14.559C128.701 14.6293 128.529 14.7403 128.386 14.8844C128.242 15.0285 128.133 15.2021 128.064 15.3931C127.995 15.5841 127.968 15.7878 127.986 15.9901V19.4747H126.809L126.809 11.1792Z" fill="white"/>
<path d="M138.808 17.8637C138.648 18.409 138.302 18.8807 137.829 19.1963C137.356 19.5118 136.788 19.6511 136.223 19.5899C135.83 19.6002 135.439 19.5249 135.078 19.3692C134.717 19.2135 134.394 18.9811 134.132 18.6881C133.87 18.3951 133.674 18.0485 133.56 17.6724C133.445 17.2964 133.413 16.8998 133.467 16.5103C133.415 16.1196 133.447 15.7221 133.561 15.345C133.676 14.9678 133.87 14.6196 134.131 14.324C134.392 14.0285 134.713 13.7924 135.073 13.6318C135.433 13.4712 135.824 13.3898 136.218 13.3932C137.878 13.3932 138.879 14.5274 138.879 16.4009V16.8118H134.666V16.8778C134.648 17.0967 134.675 17.3171 134.747 17.5248C134.819 17.7325 134.933 17.9229 135.083 18.0838C135.232 18.2448 135.414 18.3727 135.616 18.4593C135.818 18.546 136.036 18.5895 136.255 18.587C136.537 18.6208 136.822 18.5701 137.075 18.4413C137.328 18.3125 137.537 18.1115 137.675 17.8637L138.808 17.8637ZM134.666 15.9409H137.68C137.695 15.7407 137.668 15.5396 137.6 15.3505C137.532 15.1614 137.426 14.9885 137.288 14.8429C137.15 14.6974 136.982 14.5823 136.797 14.5053C136.611 14.4282 136.412 14.3907 136.211 14.3953C136.008 14.3928 135.806 14.431 135.617 14.5078C135.428 14.5846 135.257 14.6983 135.113 14.8424C134.969 14.9864 134.855 15.1578 134.779 15.3465C134.702 15.5352 134.664 15.7373 134.666 15.9409Z" fill="white"/>
</g>
<defs>
<clipPath id="clip0_292_202">
<rect width="158.555" height="53" fill="white"/>
</clipPath>
</defs>
</svg>
